<mxfile host="app.diagrams.net" modified="2024-05-14T13:18:13.950Z" agent="Mozilla/5.0 (Windows NT 10.0; Win64; x64) AppleWebKit/537.36 (KHTML, like Gecko) Chrome/124.0.0.0 Safari/537.36" etag="ppH0PxW0CkxVu4Faz_5f" version="24.4.0" type="device">
  <diagram name="Page-1" id="iXQ4aJ-nEUN2sfEoA5IL">
    <mxGraphModel dx="1050" dy="522" grid="0" gridSize="10" guides="1" tooltips="1" connect="1" arrows="1" fold="1" page="1" pageScale="1" pageWidth="850" pageHeight="1100" math="0" shadow="0">
      <root>
        <mxCell id="0" />
        <mxCell id="1" parent="0" />
        <mxCell id="zHtnoaJTTPK6IZbiMsDz-1" value="CiM Application" style="rounded=0;whiteSpace=wrap;html=1;" vertex="1" parent="1">
          <mxGeometry x="360" y="240" width="120" height="60" as="geometry" />
        </mxCell>
        <mxCell id="zHtnoaJTTPK6IZbiMsDz-3" style="edgeStyle=orthogonalEdgeStyle;rounded=0;orthogonalLoop=1;jettySize=auto;html=1;exitX=1;exitY=1;exitDx=0;exitDy=0;entryX=0;entryY=0;entryDx=0;entryDy=0;" edge="1" parent="1" source="zHtnoaJTTPK6IZbiMsDz-2" target="zHtnoaJTTPK6IZbiMsDz-1">
          <mxGeometry relative="1" as="geometry" />
        </mxCell>
        <mxCell id="zHtnoaJTTPK6IZbiMsDz-2" value="Banking System&lt;div&gt;(Modes of payment)&lt;/div&gt;" style="rounded=0;whiteSpace=wrap;html=1;" vertex="1" parent="1">
          <mxGeometry x="150" y="140" width="120" height="60" as="geometry" />
        </mxCell>
        <mxCell id="zHtnoaJTTPK6IZbiMsDz-5" style="edgeStyle=orthogonalEdgeStyle;rounded=0;orthogonalLoop=1;jettySize=auto;html=1;exitX=0;exitY=1;exitDx=0;exitDy=0;entryX=1;entryY=0;entryDx=0;entryDy=0;" edge="1" parent="1" source="zHtnoaJTTPK6IZbiMsDz-4" target="zHtnoaJTTPK6IZbiMsDz-1">
          <mxGeometry relative="1" as="geometry" />
        </mxCell>
        <mxCell id="zHtnoaJTTPK6IZbiMsDz-4" value="Fine Collection Sytem" style="rounded=0;whiteSpace=wrap;html=1;" vertex="1" parent="1">
          <mxGeometry x="570" y="140" width="120" height="60" as="geometry" />
        </mxCell>
        <mxCell id="zHtnoaJTTPK6IZbiMsDz-7" style="edgeStyle=orthogonalEdgeStyle;rounded=0;orthogonalLoop=1;jettySize=auto;html=1;exitX=1;exitY=0;exitDx=0;exitDy=0;entryX=0;entryY=1;entryDx=0;entryDy=0;" edge="1" parent="1" source="zHtnoaJTTPK6IZbiMsDz-6" target="zHtnoaJTTPK6IZbiMsDz-1">
          <mxGeometry relative="1" as="geometry" />
        </mxCell>
        <mxCell id="zHtnoaJTTPK6IZbiMsDz-6" value="User Authentication Sytem" style="rounded=0;whiteSpace=wrap;html=1;" vertex="1" parent="1">
          <mxGeometry x="150" y="340" width="120" height="60" as="geometry" />
        </mxCell>
        <mxCell id="zHtnoaJTTPK6IZbiMsDz-9" style="edgeStyle=orthogonalEdgeStyle;rounded=0;orthogonalLoop=1;jettySize=auto;html=1;exitX=0;exitY=0;exitDx=0;exitDy=0;entryX=1;entryY=1;entryDx=0;entryDy=0;" edge="1" parent="1" source="zHtnoaJTTPK6IZbiMsDz-8" target="zHtnoaJTTPK6IZbiMsDz-1">
          <mxGeometry relative="1" as="geometry" />
        </mxCell>
        <mxCell id="zHtnoaJTTPK6IZbiMsDz-8" value="Geo-locator System" style="rounded=0;whiteSpace=wrap;html=1;" vertex="1" parent="1">
          <mxGeometry x="570" y="340" width="120" height="60" as="geometry" />
        </mxCell>
      </root>
    </mxGraphModel>
  </diagram>
</mxfile>
